<?xml version="1.0" encoding="UTF-8"?>
<svg width="1340" height="835.38" fill="none" version="1.1" xmlns="http://www.w3.org/2000/svg" xmlns:cc="http://creativecommons.org/ns#" xmlns:dc="http://purl.org/dc/elements/1.1/" xmlns:rdf="http://www.w3.org/1999/02/22-rdf-syntax-ns#"><metadata><rdf:RDF><cc:Work rdf:about=""><dc:format>image/svg+xml</dc:format><dc:type rdf:resource="http://purl.org/dc/dcmitype/StillImage"/><dc:title/></cc:Work></rdf:RDF></metadata><g fill="#49a5a0"><path d="m494.76 663.05 17.672 20.423c3.7285 4.3207.782 10.997-4.9086 10.997h-74.823c-5.6906 0-8.6371-6.6765-4.9086-10.997l17.672-20.423h-7.0661c-5.1041 0-7.8551-5.6948-4.5175-9.4261l18.657-21.994h-8.8396c-4.322 0-6.4796-4.32-3.924-7.2658l26.512-28.671c1.962-2.1596 5.6906-2.1596 7.6526 0l26.512 28.671c2.5555 2.9458.398 7.2658-3.9241 7.2658h-8.6441l18.657 21.994c3.142 3.7314.39101 9.4261-4.7131 9.4261zm65.599-113.45-2.6952.72266c-.74592.19793-1.1878.96552-.9845 1.71l3.7914 14.164-6.7938.11443c-3.3166-4.4568-9.1049-6.6967-14.803-5.1711-5.6906 1.5249-9.5867 6.3609-10.229 11.879l-5.9419 3.2978-3.7984-14.164c-.19648-.74417-.96034-1.1868-1.7037-.9873l-2.7022.72267c-.74599.19825-1.1879.96607-.98451 1.7107l9.3982 35.071c.19837.74613.96545 1.1888 1.7107.9873l2.6952-.72267c.74599-.19825 1.1879-.96607.9845-1.7107l-3.7914-14.163 6.7938-.11444c3.3166 4.4568 9.1049 6.696 14.803 5.1711 5.6906-1.5256 9.5867-6.3616 10.229-11.879l5.9419-3.2978 3.7984 14.164c.19676.74389.96041 1.1864 1.7037.9873l2.7022-.72267c.74599-.19825 1.1879-.96607.98452-1.7107l-9.3982-35.071c-.19836-.74612-.96545-1.1888-1.7107-.98729zm-18.999 16.766c1.5221-.20877 3.0164.001 4.364.56977l-1.3965 2.4187c-.71918-.24994-1.4822-.34882-2.2413-.29045zm-2.0249.54254.72617 2.6972c-.6858.32996-1.2966.79718-1.7945 1.3727l-2.4229-1.3965c.90317-1.1878 2.1089-2.1112 3.4912-2.6735zm-4.5385 4.4875 2.4229 1.3965c-.25208.71917-.35192 1.4829-.29326 2.2427l-2.6952.72267c-.20946-1.5221 0-3.0136.56557-4.3618zm-.028 6.3853 2.7022-.72268c.32776.6866.79362 1.2982 1.3685 1.7966l-1.3965 2.4187c-1.166-.88326-2.0947-2.0702-2.6742-3.4925zm8.8536 5.1096c-1.5222.20877-3.0164-.001-4.364-.56976l1.3965-2.4187c.70521.24717 1.4663.34772 2.2413.29046zm-3.8263-7.5395c-.40295-1.4886.47941-3.0215 1.969-3.4206 1.4902-.40095 3.023.48368 3.4213 1.9746.84144 3.5217-4.3561 4.916-5.3903 1.446zm5.8512 6.997-.72617-2.698c.69824-.33725 1.3057-.80508 1.7945-1.3727l2.4229 1.3965c-.90296 1.1882-2.1087 2.1119-3.4912 2.6742zm4.5385-4.4875-2.4229-1.3965c.25137-.7073.34911-1.4684.29326-2.2427l2.6952-.72267c.20948 1.5222 0 3.0129-.56556 4.3618zm-2.6742-5.6626c-.32754-.68674-.79346-1.2984-1.3685-1.7966l1.3965-2.4187c1.1661.88326 2.0947 2.0696 2.6742 3.4926z" stroke-width=".69823"/><path d="m817.15 664.65c-2.5486 0-4.7131-2.0619-4.7131-4.7131 0-2.5527 2.1645-4.7131 4.7131-4.7131 2.6533 0 4.713 2.1603 4.713 4.7131 0 2.6512-2.0598 4.7131-4.713 4.7131zm-9.2306 14.729 2.2623-1.1786.97753-2.9452c1.4733-4.3206 5.5021-7.3642 10.02-7.4627 3.5331 0 5.4951 1.0802 9.1329 2.5527 2.1575.78551 3.9241 2.455 4.9086 4.5169l.68427 1.2764c.789 1.571.0978 3.4367-1.3755 4.2222-1.571.78552-3.4353.19621-4.2173-1.3748l-.69124-1.3741c-.29325-.68776-.87977-1.1786-1.571-1.4733l-2.6533-1.0802 1.4733 5.9901c.59349 2.0619 0 4.2215-1.4733 5.7925l-5.7883 6.3826a5.3764 5.3764 0 00-1.4733 2.7496l-1.8643 7.1674c-.398 1.6695-2.0668 2.7496-3.7356 2.2588-1.7665-.39311-2.751-2.0626-2.353-3.7314l2.1575-8.7391a6.7903 6.7903 0 011.4733-2.749l4.5176-4.91-1.6688-6.6765-.5935 1.571c-.48876 1.571-1.6688 2.8474-3.142 3.6329l-2.2553 1.1786c-1.4733.78551-3.3376.0978-4.1266-1.3748-.78203-1.571-.1955-3.5351 1.3755-4.2222zm22.49 13.746c.29325.78551.78202 1.571 1.3685 2.1603l4.9156 4.9093c1.2708 1.1786 1.2708 3.2405 0 4.4191-1.18 1.2764-3.2398 1.2764-4.4198 0l-5.8931-5.7932c-.58651-.58931-.98452-1.3748-1.3755-2.1603l-1.2778-3.3382c5.4043-5.8917 3.7355-4.026 4.6153-5.2039z" stroke-width=".69823"/><g transform="matrix(.69823 0 0 .69823 -290.33 218.49)"><path d="m1771.7 301.31c.78-.78101.78-2.047 0-2.828l-4.64-4.637a2.001 2.001 0 00-2.26-.398l-30.65 14.279c-6.7 3.155-12.34 8.462-15.07 15.352-7.18 18.154 5.98 30.588 5.98 30.588s12.4 13.171 30.59 5.978c6.89-2.725 12.2-8.371 15.35-15.072l.92-1.969.62.063c1.8.178 3.57-.456 4.85-1.728l5.65-5.656a5.988 5.988 0 000-8.486 5.933 5.933 0 00-3-1.62l5.24-11.252c.35-.76199.19-1.665-.4-2.259l-4.64-4.637a1.99 1.99 0 00-2.82 0l-12.73 12.728-5.72-5.718zm-38.15 46.699a2.002 2.002 0 01-2.83-2.829 2.002 2.002 0 012.83 2.829zm11.31 5.657a2.002 2.002 0 01-2.83-2.829 2.002 2.002 0 012.83 2.829zm-16.97-16.971a2.001 2.001 0 110-2.828c.78.781.78 2.047 0 2.828zm24.04 4.243c-3.9 3.899-10.24 3.899-14.14 0s-3.9-10.243 0-14.142 10.24-3.899 14.14 0 3.9 10.243 0 14.142z" clip-rule="evenodd" fill-rule="evenodd"/><path d="m772.23 209.96a4 4 0 00-5.464-1.464l-19.919 11.5a3 3 0 00-1.098 4.098l1 1.732a3 3 0 004.098 1.098l6.738-3.89 9.548 2.708-1.108.781a4.78 4.78 0 004.759 8.242l1.23-.569-4.837 11.013-4.33 2.5a3 3 0 00-1.098 4.098l1 1.732a3 3 0 004.098 1.098l19.919-11.5a4 4 0 00-4-6.928l-7.604 4.39 4.45-9.914 2.368-1.095a28.043 28.043 0 01-3.482-4.773 28.056 28.056 0 01-2.393-5.403l-2.132 1.503-8.404-2.493 5.197-3a4 4 0 001.464-5.464zm28.516-2.607a4.005 4.005 0 00-1.464 5.464 4.005 4.005 0 005.464 1.464 4.006 4.006 0 001.465-5.464 4.006 4.006 0 00-5.465-1.464z"/><path d="m790.75 190.03c-11.479 6.627-15.412 21.306-8.784 32.785 6.627 11.479 21.305 15.412 32.784 8.784 11.48-6.627 15.412-21.305 8.785-32.784s-21.305-15.412-32.785-8.785zm16 27.713c-3.82 2.205-8.722.892-10.928-2.928-2.205-3.821-.892-8.723 2.928-10.929 3.821-2.205 8.723-.892 10.929 2.929 2.205 3.82.892 8.722-2.929 10.928z" clip-rule="evenodd" fill-rule="evenodd"/></g><g transform="matrix(.69823 0 0 .69823 -279.47 257.03)"><path d="m1939.8 553.32h-4.01v-94c0-3.314-2.69-6-6.01-6h-2.01v-4c0-2.209-1.8-4-4.01-4h-24.05v-4c0-2.209-1.8-4-4.01-4-2.2126-.004-4.0089 1.7874-4.01 4v4h-24.06c-2.2126-.004-4.0089 1.7874-4.01 4v4h-2.01c-3.3167-.003-6.0078 2.6833-6.01 6v94h-4.01c-2.2112-.001-4.0056 1.7888-4.01 4v4c0 2.209 1.8 4 4.01 4h88.21c2.22 0 4.01-1.791 4.01-4v-4c0-2.209-1.79-4-4.01-4zm-50.12-84c1.11 0 2.01.896 2.01 2v6h-8.02v-8zm-16.04 0h6.02v8h-8.02v-6c0-1.104.9-2 2-2zm0 20c-1.1 0-2-.89499-2-2v-6h8.02v8zm18.05 26c0 1.105-.9 2-2.01 2h-16.04c-1.1 0-2-.89499-2-2v-16c0-1.104.9-2 2-2h16.04c1.11 0 2.01.896 2.01 2zm-2.01-26h-6.01v-8h8.02v6c0 1.105-.9 2-2.01 2zm28.07-20c1.11 0 2.01.896 2.01 2v6h-8.02v-8zm-16.04 0h6.02v8h-8.02v-6c0-1.104.89-2 2-2zm-2 18v-6h8.02v8h-6.02c-1.11 0-2-.89499-2-2zm18.04 2h-6.01v-8h8.02v6c0 1.105-.9 2-2.01 2z" clip-rule="evenodd" fill-rule="evenodd"/><path d="m739.11 412.49c-4.746-4.64-10.441-7.277-15.293-7.277-2.531 0-4.746.73802-6.539 2.109-.211.21101-.527.42201-.738.63301-4.114 4.113-10.758 12.024-10.758 19.406v10.547l-.949.95c-1.055 1.054-2.532 1.16-3.903.63201-.632-.21101-1.687-.42201-2.32-.42201-3.48 0-6.328 2.848-6.328 6.329 0 1.476.738 3.48 1.793 4.535 1.687 1.582 3.902 2.004 5.906 1.582-.422 2.004 0 4.324 1.582 5.906 1.055 1.055 3.059 1.898 4.535 1.898 3.5627.0235 6.4569-2.8703 6.434-6.433 0-.63301-.211-1.688-.527-2.32-.528-1.372-.317-2.848.632-3.903l.95-.94901h10.546c7.383 0 15.293-6.645 19.407-10.758.211-.211.527-.63299.738-.949 3.902-5.168 1.793-14.449-5.168-21.516zm.844 18.879c-1.055 1.055-2.531 1.266-3.692 1.266-3.586 0-8.121-2.215-11.601-5.695-2.953-2.848-4.957-6.434-5.59-9.598-.527-2.531-.106-4.641 1.055-5.801 1.054-.94899 2.531-1.266 3.691-1.266 3.586 0 8.121 2.215 11.707 5.801 5.59 5.696 7.066 12.762 4.43 15.293zm-12.762-12.656c-.949 1.055-.527 3.059.949 4.641 1.582 1.582 3.692 2.004 4.746.949 1.055-1.055.633-3.164-.949-4.641-1.582-1.582-3.691-2.004-4.746-.94901z"/></g><g transform="matrix(.69823 0 0 .69823 -304.29 24.606)"><path d="m2045.1 171.27h-2.2215c-.6154 0-1.1108.49692-1.1108 1.1098v11.654l-5.2462-1.3095c-1.6307-4.1037-5.6215-7.0148-10.311-7.0148-4.6893 0-8.68 2.9111-10.311 7.0148l-5.2461 1.3095v-11.654c0-.61345-.4974-1.1107-1.1108-1.1098h-2.2216c-.613.00017-1.11.4968-1.1107 1.1098v28.857c0 .61305.4977 1.1097 1.1107 1.1098h2.2216c.6154 0 1.1108-.49692 1.1108-1.1098v-11.654l5.2461 1.3095c1.6308 4.1037 5.6215 7.0145 10.311 7.0145 4.6892 0 8.68-2.9108 10.311-7.0145l5.2462-1.3095v11.654c0 .61345.4973 1.1107 1.1108 1.1098h2.2215c.6123 0 1.1108-.49692 1.1108-1.1098v-28.857c0-.61305-.4978-1.1097-1.1108-1.1098zm-18.055 8.9631c1.2123.15293 2.3139.62093 3.2339 1.3345l-1.5692 1.5695c-.5026-.33904-1.069-.5719-1.6647-.6843zm-1.6677 0v2.2197c-.5956.1124-1.1621.34526-1.6646.6843l-1.5692-1.5695c.9382-.72782 2.0554-1.1889 3.2338-1.3345zm-4.4123 2.5114 1.5693 1.5698c-.339.50141-.5714 1.067-.6831 1.6618h-2.2215c.1446-1.1782.6061-2.295 1.3353-3.2317zm-1.3353 4.8963h2.2215c.1117.59483.3441 1.1604.6831 1.6618l-1.5693 1.5695c-.7293-.93649-1.1907-2.0533-1.3353-3.2314zm5.7476 5.7431c-1.1784-.14562-2.2956-.60665-3.2338-1.3345l1.5692-1.5695c.5025.33904 1.069.5719 1.6646.6843zm-1.3876-6.5754c1e-4-1.2266.9949-2.2206 2.2215-2.2197 1.2403-.0207 2.2569.97917 2.2569 2.2197s-1.0166 2.2403-2.2569 2.2197c-1.2277 0-2.2215-.99384-2.2215-2.2197zm3.0553 6.5754v-2.2197c.5957-.1124 1.1621-.34526 1.6647-.6843l1.5692 1.5695c-.9382.72782-2.0554 1.1889-3.2339 1.3345zm4.4123-2.5117-1.5723-1.5695c.3411-.50055.5748-1.0664.6862-1.6618h2.2215c-.1446 1.1781-.6061 2.2949-1.3354 3.2314zm-.8861-4.896c-.1114-.59544-.3451-1.1613-.6862-1.6618l1.5723-1.5698c.7292.93665 1.1908 2.0535 1.3354 3.2317z" stroke-width=".30769"/><path d="m1621.1 67.209c-2.9387 2.9262-2.9387 7.6835 0 10.61 2.927 2.9292 7.6748 2.9292 10.602 0 2.9252-2.9316 2.9252-7.6781 0-10.61-2.9273-2.9292-7.6751-2.9292-10.602 0z" stroke-width="1.2503"/><path d="m1016.4 303.16c-2.9387 2.9262-2.9387 7.6835 0 10.61 2.927 2.9292 7.6748 2.9292 10.602 0 2.9252-2.9316 2.9252-7.6781 0-10.61-2.9273-2.9292-7.6751-2.9292-10.602 0z" stroke-width="1.2503"/><path d="m1714.7 359.52c-1.3714 1.3656-1.3714 3.5856 0 4.9514 1.366 1.367 3.5816 1.367 4.9476 0 1.3652-1.3681 1.3652-3.5831 0-4.9514-1.366-1.367-3.5817-1.367-4.9476 0z" stroke-width=".58348"/></g><path d="m1189 345.67 12.626 14.591c2.6638 3.0868.5587 7.8566-3.5068 7.8566h-53.455c-4.0655 0-6.1705-4.7698-3.5068-7.8566l12.626-14.591h-5.0482c-3.6465 0-5.6119-4.0685-3.2274-6.7342l13.329-15.713h-6.3152c-3.0877 0-4.6291-3.0863-2.8034-5.1908l18.941-20.484c1.4017-1.5429 4.0654-1.5429 5.4672 0l18.941 20.484c1.8257 2.1046.2844 5.1908-2.8034 5.1908h-6.1755l13.329 15.713c2.2447 2.6658.2793 6.7342-3.3672 6.7342z" stroke-width=".49883"/><path d="m97.238 343.91 7.0141 8.106c1.4799 1.7149.3104 4.3648-1.9482 4.3648h-29.697c-2.2586 0-3.4281-2.6499-1.9482-4.3648l7.0141-8.106h-2.8045c-2.0258 0-3.1177-2.2603-1.793-3.7412l7.4049-8.7296h-3.5085c-1.7154 0-2.5717-1.7146-1.5574-2.8838l10.523-11.38c.77872-.85716 2.2586-.85716 3.0374 0l10.523 11.38c1.0143 1.1692.15796 2.8838-1.5575 2.8838h-3.4308l7.4049 8.7296c1.2471 1.481.15521 3.7412-1.8706 3.7412z" stroke-width=".27713"/><path d="m180.15 106.57-.93726-.54177c-.25891-.14985-.5903-.061-.73951.19832l-2.8443 4.9266-1.8962-1.8322c.31423-2.1324-.66095-4.336-2.6411-5.4792-1.9802-1.1431-4.3775-.88551-6.0678.45157l-2.5328-.72489 2.8443-4.9266c.14899-.25922.0596-.59052-.19775-.74004l-.93996-.54177c-.25896-.14955-.59012-.06078-.73951.19829l-7.043 12.199c-.14898.25924-.0596.59053.19773.74005l.93998.54176c.25734.14981.59053.061.73953-.19827l2.8443-4.9263 1.8935 1.832c-.31153 2.1324.66367 4.336 2.6438 5.4792 1.9802 1.1431 4.3748.88578 6.0651-.4513l2.5355.72489-2.8443 4.9263c-.1513.25875-.0624.59126.19775.74006l.93726.54176c.26004.1498.59052.061.73951-.19828l7.043-12.199c.15132-.25878.0624-.59125-.19774-.74005zm-9.8114-.61301c.46202.34925.82134.81655 1.0402 1.3528l-1.0456.28065c-.12982-.26558-.31228-.502-.53635-.69482zm-.70429-.40632-.54176.93861c-.27877-.0981-.57478-.13774-.86955-.1165l-.27901-1.0467c.56073-.0775 1.1404-.007 1.6903.22456zm-2.4759-.0141.27901 1.0464c-.26506.12968-.50098.31188-.69347.53553l-.93726-.54178c.34855-.46226.81561-.82167 1.3517-1.0402zm-1.758 1.7439.93726.54176c-.0985.27867-.13829.57478-.11649.86955l-1.0456.28063c-.0804-.57392-.002-1.1589.22484-1.6919zm1.024 3.8295c-.46214-.34913-.8215-.81651-1.0402-1.3528l1.0483-.28036c.12795.266.30963.50256.53364.69481zm1.0185-3.1182c.29977-.51855.96306-.69607 1.4817-.39657.51833.29919.69551.96223.39548 1.4801-.29878.5181-.96111.69568-1.479.39658-.51884-.29865-.69711-.96145-.39821-1.4801zm-.31422 3.5245.54177-.93835c.28443.0992.57969.13789.86953.11625l.28173 1.0467c-.56344.0775-1.1431.006-1.693-.22453zm2.4759.0143-.279-1.0467c.26555-.12889.50163-.31121.69346-.53553l.93997.54176c-.34964.46237-.81756.82184-1.3544 1.0405zm.82079-2.286c.10025-.28443.13814-.57968.11649-.86953l1.0483-.28037c.0759.56235.005 1.1423-.22484 1.6917z" stroke-width=".27088"/><path d="m264.89 218.16-6.8561-7.9234h2.7414c1.9801 0 3.0474-2.2093 1.8284-3.6569l-7.238-8.5328h3.3535c1.6768 0 2.5138-1.676 1.5224-2.8188l-10.285-11.123c-.76118-.83785-2.2077-.83785-2.9689 0l-10.285 11.123c-.99144 1.1428-.15441 2.8188 1.5224 2.8188h3.4294l-7.238 8.5328c-1.2948 1.4476-.22754 3.6569 1.7526 3.6569h2.7414l-6.8561 7.9234c-1.4465 1.6762-.30339 4.2664 1.9043 4.2664h29.028c2.2077 0 3.3508-2.5902 1.9043-4.2664z" stroke-width=".27088"/><g transform="matrix(.41867 0 0 .41867 -332.91 543.14)"><path d="m2378.9-738.4-3.86 1.035c-1.0683.28347-1.7012 1.3828-1.41 2.449l5.43 20.285-9.73.164c-4.75-6.383-13.04-9.591-21.2-7.406-8.15 2.184-13.73 9.11-14.65 17.013l-8.51 4.723-5.44-20.285c-.2814-1.0658-1.3754-1.6998-2.44-1.414l-3.87 1.035c-1.0684.28393-1.7013 1.3836-1.41 2.45l13.46 50.228c.2841 1.0686 1.3827 1.7026 2.45 1.414l3.86-1.035c1.0684-.28393 1.7013-1.3836 1.41-2.45l-5.43-20.284 9.73-.164c4.75 6.383 13.04 9.59 21.2 7.406 8.15-2.185 13.73-9.111 14.65-17.013l8.51-4.723 5.44 20.285c.2818 1.0654 1.3755 1.6992 2.44 1.414l3.87-1.035c1.0684-.28394 1.7013-1.3836 1.41-2.45l-13.46-50.228c-.2841-1.0686-1.3827-1.7026-2.45-1.414zm-27.21 24.012c2.18-.299 4.32.002 6.25.816l-2 3.464c-1.03-.35798-2.1228-.49958-3.21-.41601zm-2.9.77701 1.04 3.863c-.9822.47255-1.8569 1.1417-2.57 1.966l-3.47-2c1.2935-1.7012 3.0204-3.0236 5-3.829zm-6.5 6.427 3.47 2c-.361 1.03-.504 2.1238-.42 3.212l-3.86 1.035c-.3-2.18 0-4.316.81-6.247zm-.04 9.145 3.87-1.035c.4694.98334 1.1366 1.8593 1.96 2.573l-2 3.464c-1.67-1.265-3-2.965-3.83-5.002zm12.68 7.318c-2.18.299-4.32-.002-6.25-.81599l2-3.464c1.01.35399 2.1.49799 3.21.416zm-5.48-10.798c-.5771-2.1319.6866-4.3273 2.82-4.899 2.1343-.57421 4.3295.69272 4.9 2.828 1.2051 5.0438-6.2388 7.0407-7.72 2.071zm8.38 10.021-1.04-3.864c1-.483 1.87-1.153 2.57-1.966l3.47 2c-1.2932 1.7018-3.0201 3.0246-5 3.83zm6.5-6.427-3.47-2c.36-1.013.5-2.103.42-3.212l3.86-1.035c.3 2.18 0 4.315-.81 6.247zm-3.83-8.11c-.4691-.98351-1.1364-1.8595-1.96-2.573l2-3.464c1.67 1.265 3 2.964 3.83 5.002z" fill="#49a5a0"/></g><g transform="matrix(.41867 0 0 .41867 -252.94 767.68)"><path d="m2220.8-805.21c-31.8 0-61.4-4.67-86.5-12.612.49 4.347 1.35 8.574 2.45 12.705 24.79 7.156 53.37 11.201 84.05 11.201s59.26-4.045 84.05-11.201c1.1-4.131 1.96-8.358 2.45-12.705-25.1 7.942-54.71 12.612-86.5 12.612zm-22.48-28.235c15.52 0 28.1-12.642 28.1-28.236s-12.58-28.235-28.1-28.235-28.1 12.641-28.1 28.235 12.58 28.236 28.1 28.236zm0-36.706c4.66 0 8.43 3.792 8.43 8.47s-3.77 8.471-8.43 8.471c-4.65 0-8.43-3.793-8.43-8.471s3.78-8.47 8.43-8.47z" fill="#49a5a0"/></g><path d="m1265 732.69c-3.3138-3.2398-7.2902-5.081-10.678-5.081-1.7672 0-3.3138.51532-4.5658 1.4726-.1473.14733-.3679.29466-.5152.44198-2.8726 2.8718-7.5117 8.3956-7.5117 13.55v7.3643l-.6626.66331c-.7366.73594-1.7679.80995-2.7251.4413-.4414-.14734-1.178-.29466-1.62-.29466-2.4298 0-4.4183 1.9886-4.4183 4.4191 0 1.0306.5152 2.4298 1.2518 3.1665 1.178 1.1046 2.7246 1.3992 4.1239 1.1046-.2947 1.3993 0 3.0192 1.1046 4.1238.7365.73664 2.1358 1.3252 3.1663 1.3252 2.4877.0164 4.5085-2.0041 4.4925-4.4917 0-.442-.1473-1.1786-.3679-1.6199-.3687-.95798-.2214-1.9886.4412-2.7252l.6634-.66262h7.3635c5.1551 0 10.678-4.6398 13.551-7.5116.1473-.14732.368-.44197.5153-.66261 2.7245-3.6085 1.2519-10.089-3.6085-15.023zm.5893 13.182c-.7366.73663-1.7672.88396-2.5778.88396-2.5039 0-5.6704-1.5466-8.1003-3.9764-2.0619-1.9886-3.461-4.4924-3.903-6.7016-.3681-1.7672-.074-3.2405.7365-4.0504.736-.66261 1.7672-.88395 2.5773-.88395 2.5039 0 5.6704 1.5466 8.1741 4.0504 3.9032 3.9771 4.9337 8.9108 3.0932 10.678zm-8.9108-8.8368c-.6627.73663-.368 2.1359.6626 3.2405 1.1047 1.1046 2.5779 1.3992 3.3139.66262.7365-.73663.442-2.2092-.6626-3.2405-1.1048-1.1046-2.5773-1.3992-3.3139-.66262z" stroke-width=".69823"/><g transform="matrix(.41867 0 0 .41867 -714.45 1064.7)"><path d="m2220.8-805.21c-31.8 0-61.4-4.67-86.5-12.612.49 4.347 1.35 8.574 2.45 12.705 24.79 7.156 53.37 11.201 84.05 11.201s59.26-4.045 84.05-11.201c1.1-4.131 1.96-8.358 2.45-12.705-25.1 7.942-54.71 12.612-86.5 12.612zm-22.48-28.235c15.52 0 28.1-12.642 28.1-28.236s-12.58-28.235-28.1-28.235-28.1 12.641-28.1 28.235 12.58 28.236 28.1 28.236zm0-36.706c4.66 0 8.43 3.792 8.43 8.47s-3.77 8.471-8.43 8.471c-4.65 0-8.43-3.793-8.43-8.471s3.78-8.47 8.43-8.47z" fill="#49a5a0"/></g></g></svg>
